<svg aria-hidden="true" style="position: absolute; width: 0; height: 0; overflow: hidden; fill: currentColor;"
  version="1.1"
  xmlns="http://www.w3.org/2000/svg" xmlns:xlink="http://www.w3.org/1999/xlink">
  <defs>
    <symbol
      id="icon-arrow-left"
      viewBox="0 0 48 48"
      xmlns="http://www.w3.org/2000/svg">
      <path
        d="M24.15 11.1L22.02 9L6 25.02L22.05 41.1L24.18 39L11.7566 26.5499H42V23.5499H11.7001L24.15 11.1Z"
        fill-rule="evenodd" />
    </symbol>

    <symbol
      id="icon-check"
      viewBox="0 0 48 48"
      xmlns="http://www.w3.org/2000/svg">
      <path
        d="M19.53 36.69L6 23.19L8.13 21.06L19.53 32.46L39.99 12L42.12 14.13L19.53 36.69Z"
        fill-rule="evenodd" />
    </symbol>

    <symbol
      id="icon-close-filled"
      viewBox="0 0 48 48"
      xmlns="http://www.w3.org/2000/svg">
      <path
        clip-rule="evenodd"
        d="M45 24C45 35.598 35.598 45 24 45C12.402 45 3 35.598 3 24C3 12.402 12.402 3 24 3C35.598 3 45 12.402 45 24ZM31.4095 14.46L33.5395 16.59L26.0995 24L33.5395 31.41L31.4095 33.54L23.9995 26.13L16.5595 33.54L14.4595 31.41L21.8695 24L14.4595 16.59L16.5595 14.46L23.9995 21.87L31.4095 14.46Z"
        fill-rule="evenodd" />
    </symbol>
    <symbol
      id="icon-close-outline"
      viewBox="0 0 48 48"
      xmlns="http://www.w3.org/2000/svg">
      <path
        d="M21.8679 24.0212L14.4434 31.4458L16.5647 33.5671L23.9892 26.1426L31.4139 33.5672L33.5352 31.4459L26.1106 24.0212L33.5352 16.5966L31.4139 14.4752L23.9892 21.8999L16.5647 14.4754L14.4434 16.5967L21.8679 24.0212Z"
        fill-rule="evenodd" />
      <path
        fill-rule="evenodd"
        clip-rule="evenodd"
        d="M24 3C12.42 3 3 12.42 3 24C3 35.58 12.39 45 24 45C35.61 45 45 35.61 45 24C45 12.39 35.61 3 24 3ZM24 6C33.93 6 42 14.07 42 24C42 33.93 33.93 42 24 42C14.07 42 6 33.93 6 24C6 14.07 14.07 6 24 6Z" />
    </symbol>

    <symbol
      id="icon-error"

      viewBox="0 0 48 48"
      xmlns="http://www.w3.org/2000/svg">
      <path
        d="M44.67 23.4L34.86 6.6C34.65 6.24 34.26 6 33.81 6H14.19C13.77 6 13.38 6.24 13.14 6.6L3.39004 23.4C3.18004 23.76 3.18004 24.24 3.39004 24.6L13.2 41.4C13.41 41.76 13.8 42 14.25 42H33.87C34.29 42 34.68 41.76 34.92 41.4L44.73 24.6C44.94 24.24 44.94 23.76 44.73 23.4H44.67ZM33.51 31.44L31.38 33.57L23.97 26.16L16.56 33.57L14.43 31.44L21.84 24.03L14.43 16.62L16.56 14.49L23.97 21.9L31.38 14.49L33.51 16.62L26.1 24.03L33.51 31.44Z"
        fill-rule="evenodd"
        clip-rule="evenodd" />
    </symbol>

    <symbol
      id="icon-information"
      viewBox="0 0 48 48"
      xmlns="http://www.w3.org/2000/svg">
      <path
        d="M42 3H6C4.35 3 3 4.35 3 6V42C3 43.65 4.35 45 6 45H42C43.65 45 45 43.65 45 42V6C45 4.35 43.65 3 42 3ZM21.93 13.38C22.11 12.96 22.38 12.63 22.77 12.36C23.13 12.12 23.58 11.97 24.03 11.97C24.63 11.97 25.2 12.21 25.62 12.63C26.04 13.05 26.28 13.62 26.28 14.22C26.28 14.67 26.16 15.09 25.89 15.48C25.65 15.84 25.29 16.14 24.87 16.32C24.45 16.5 24 16.53 23.58 16.44C23.13 16.35 22.74 16.14 22.44 15.81C22.14 15.51 21.9 15.09 21.81 14.67C21.72 14.25 21.78 13.77 21.93 13.38ZM30 36H18V33H22.5V24H19.5V21H25.5V33H30V36Z"
        fill-rule="evenodd"
        clip-rule="evenodd" />
    </symbol>

    <symbol
      id="icon-log-in"
      viewBox="0 0 48 48"
      xmlns="http://www.w3.org/2000/svg">
      <path
        fill-rule="evenodd"
        clip-rule="evenodd"
        d="M13.4707 13.5C13.4707 7.71002 18.1802 3 23.9707 3C29.7598 3 34.4707 7.71002 34.4707 13.5C34.4707 19.29 29.7598 24 23.9707 24C18.1802 24 13.4707 19.29 13.4707 13.5ZM30.8701 13.5C30.8701 9.68994 27.7793 6.60004 23.9707 6.60004C20.1606 6.60004 17.0698 9.68994 17.0698 13.5C17.0698 17.3101 20.1606 20.4 23.9707 20.4C27.7793 20.4 30.8701 17.3101 30.8701 13.5Z" />
      <path
        d="M38.7598 45H42.3604V39.0901C42.3604 32.25 37.1704 26.7001 30.8101 26.7001H17.2793C10.9204 26.7001 5.73047 32.25 5.73047 39.0901V45H9.32959V39.0901C9.32959 34.2599 12.8994 30.2999 17.2793 30.2999H30.8101C35.1899 30.2999 38.7598 34.2299 38.7598 39.0901V45Z"
        fill-rule="evenodd" />
    </symbol>

    <symbol
      id="icon-search"
      viewBox="0 0 48 48"
      xmlns="http://www.w3.org/2000/svg">
      <path
        fill-rule="evenodd"
        clip-rule="evenodd"
        d="M3 21C3 11.07 11.07 3 21 3C30.93 3 39 11.07 39 21C39 25.4163 37.4038 29.4646 34.7577 32.5988L46.067 43.9081L43.9457 46.0294L32.6395 34.7232C29.4997 37.3899 25.4354 39 21 39C11.07 39 3 30.93 3 21ZM36 21C36 12.72 29.28 6 21 6C12.72 6 6 12.72 6 21C6 29.28 12.72 36 21 36C29.28 36 36 29.28 36 21Z" />
    </symbol>

    <symbol
      id="icon-spinner"
      viewBox="0 0 48 48"
      xmlns="http://www.w3.org/2000/svg">
      <path
        d="M24.03 45C16.86 45 9.78 40.98 6 34.77L9.21 32.82C12.33 37.95 18.15 41.25 24.03 41.25C33.54 41.25 41.28 33.51 41.28 24C41.28 14.49 33.54 6.75 24.03 6.75V3C35.61 3 45.03 12.42 45.03 24C45.03 35.58 35.61 45 24.03 45Z"
        fill-rule="evenodd" />
    </symbol>

    <symbol
      id="icon-upload"
      viewBox="0 0 48 48"
      xmlns="http://www.w3.org/2000/svg">
      <path
        d="M24.0004 3L40.0504 19.02L37.9204 21.15L25.4704 8.7V36H22.4704V8.76L10.0504 21.18L7.92041 19.05L24.0004 3Z"
        fill-rule="evenodd" />
      <path
        d="M39 42V36H42V42C42 43.65 40.65 45 39 45H9C7.35 45 6 43.65 6 42V36H9V42H39Z"
        fill-rule="evenodd" />
    </symbol>

    <symbol
      id="icon-warning"
      viewBox="0 0 48 48"
      xmlns="http://www.w3.org/2000/svg">
      <path
        d="M44.7298 44.13L34.5898 25.35L24.5098 6.65997C24.2698 6.23997 23.6698 6.23997 23.4598 6.65997L13.3798 25.35L3.23976 44.13C3.02976 44.52 3.29976 45 3.77976 45H44.1898C44.6398 45 44.9398 44.52 44.7298 44.13ZM22.4998 17.97H25.4998V32.1H22.4998V17.97ZM23.9998 38.94C22.8898 38.94 21.9898 38.04 21.9898 36.93C21.9898 35.82 22.8898 34.92 23.9998 34.92C25.1098 34.92 26.0398 35.82 26.0398 36.93C26.0398 38.04 25.1398 38.94 23.9998 38.94Z"
        fill-rule="evenodd"
        clip-rule="evenodd" />
    </symbol>

    <symbol
      id="icon-corner-arrow"
      viewBox="0 0 48 48"
      xmlns="http://www.w3.org/2000/svg">
      <path
        d="M45 30.12L42.27 32.94L24.03 14.58L5.73 33L3 30.18L24.03 9L45 30.12Z"
        fill-rule="evenodd"
        clip-rule="evenodd" />
    </symbol>
    <symbol
      id="icon-book"
      viewBox="0 0 48 48"
      xmlns="http://www.w3.org/2000/svg">
      <path d="M33 18H15V21H33V18Z" fill-rule="evenodd" />
      <path d="M15 12H33V15H15V12Z" fill-rule="evenodd" />
      <path
        clip-rule="evenodd"
        d="M42 45H12.45C8.88 45 6 42.3 6 39V9C6 5.7 8.88 3 12.45 3H38.85C40.59 3 42 4.35 42 6V36H12.45C10.56 36 9 37.35 9 39C9 40.65 10.56 42 12.45 42H42V45ZM12.45 6C10.56 6 9 7.35 9 9V33.93C9.99 33.33 11.19 33 12.45 33H39V6H12.45Z"
        fill-rule="evenodd" />
    </symbol>

    <symbol
      id="icon-document"
      viewBox="0 0 48 48"
      xmlns="http://www.w3.org/2000/svg">
      <path d="M24 13.5H12V16.5H24V13.5Z" fill-rule="evenodd" />
      <path d="M30 19.5H12V22.5H30V19.5Z" fill-rule="evenodd" />
      <path
        fill-rule="evenodd"
        clip-rule="evenodd"
        d="M37.5 4.74005V30.0301H43.5V37.5001C43.5 40.8001 40.59 43.5001 36.99 43.5001H12C7.86 43.5001 4.5 40.1401 4.5 36.0001V4.74005H37.5ZM12 40.5001C14.58 40.5001 17.16 39.1201 17.16 36.0001V30.0301H34.5V7.74005H7.5V36.0001C7.5 38.4901 9.42 40.5001 12 40.5001ZM36.99 40.5001C38.94 40.5001 40.5 39.1501 40.5 37.5001V33.0301H20.16V36.0001C20.16 37.7401 19.62 39.2701 18.66 40.5001H36.99Z" />
    </symbol>
    <symbol
      id="icon-external"
      viewBox="0 0 48 48"
      xmlns="http://www.w3.org/2000/svg">
      <path
        d="M30 6V3H45V18H42V8.13L29.13 21L27 18.87L39.87 6H30Z"
        fill-rule="evenodd" />
      <path
        d="M39 42V24H42V42C42 43.65 40.65 45 39 45H6C4.35 45 3 43.65 3 42V9C3 7.35 4.35 6 6 6H24V9H6V42H39Z"
        fill-rule="evenodd" />
    </symbol>

    <symbol
      id="icon-file-blank"
      viewBox="0 0 48 48"
      xmlns="http://www.w3.org/2000/svg">
      <path
        fill-rule="evenodd"
        clip-rule="evenodd"
        d="M36 3H12C10.35 3 9 4.35 9 6V42C9 43.65 10.35 45 12 45H25.77C26.58 45 27.33 44.67 27.9 44.13L38.13 33.9C38.7 33.33 39 32.58 39 31.77V6C39 4.35 37.65 3 36 3ZM27 40.77V33H34.77L27 40.77ZM36 30H27C25.35 30 24 31.35 24 33V42H12V6H36V30Z" />
    </symbol>
    <symbol
      id="icon-file"
      viewBox="0 0 48 48"
      xmlns="http://www.w3.org/2000/svg">
      <path d="M33 11.7001H15V13.7999H33V11.7001Z" fill-rule="evenodd" />
      <path d="M15 16.6802H33V18.78H15V16.6802Z" fill-rule="evenodd" />
      <path
        fill-rule="evenodd"
        clip-rule="evenodd"
        d="M36 3H12C10.3506 3 9 4.34985 9 6V42C9 43.6501 10.3506 45 12 45H25.7695C26.5796 45 27.3296 44.67 27.8994 44.1299L38.1299 33.9001C38.6997 33.33 39 32.58 39 31.7699V6C39 4.34985 37.6494 3 36 3ZM11.1006 42V6C11.1006 5.48987 11.4902 5.09985 12 5.09985H36C36.5098 5.09985 36.8994 5.48987 36.8994 6V31.14H28.5894C26.6104 31.14 24.9902 32.7601 24.9902 34.7699V42.9001H12.0293C11.5195 42.9001 11.1299 42.5101 11.1299 42H11.1006ZM27.0894 41.9399V34.7699C27.0894 33.9302 27.75 33.2399 28.5894 33.2399H35.7905L27.0894 41.9399Z" />
    </symbol>

    <symbol id="icon-success" viewBox="0 0 44 60" xmlns="http://www.w3.org/2000/svg">
      <path fill-rule="evenodd" clip-rule="evenodd"
        d="M35.2241 51.1051C34.2663 51.1051 33.3091 51.3031 32.3513 51.6866L31.5854 52.0762V51.4948C31.2024 48.9773 28.9044 47.0351 26.2228 47.0351H25.648V43.1629H27.5636C27.9466 43.1629 28.1378 42.9649 28.3296 42.7732C28.9044 42 29.4786 41.0288 30.0534 40.2556L38.4799 46.4536C38.6717 46.6515 38.8629 46.6516 39.054 46.6516C39.2458 46.6516 39.4376 46.6515 39.4376 46.4536C39.8206 46.2618 40.0119 45.8721 40.0119 45.6804V27.2659C40.0119 26.8824 39.8207 26.6845 39.6288 26.4927L33.5003 22.2309C32.3513 14.8639 28.3296 7.30512 21.6269 0.909242C21.2433 0.519551 20.6691 0.519551 20.2861 0.909242C13.5834 7.69481 9.56169 15.0557 8.22091 22.4227L2.28422 26.4927C2.09241 26.6845 1.90061 26.8824 1.90061 27.2659V45.6804C1.90061 46.0701 2.09239 46.4536 2.47538 46.4536C2.66719 46.4536 2.85839 46.6516 2.85839 46.6516C3.05019 46.6516 3.24139 46.6515 3.4332 46.4536L11.6678 40.4474C12.2426 41.2206 12.6256 42 13.3916 42.9649C13.5834 43.1628 13.7746 43.3546 14.1576 43.3546H15.3066V48.5876H11.6678C6.11413 48.5876 1.70941 52.8495 1.70941 58.0825C1.70941 58.6639 2.09239 59.0536 2.66719 59.0536C3.24137 59.0536 3.62436 58.6639 3.62436 58.0825C3.62436 53.8206 7.26311 50.5237 11.6678 50.5237H16.2644C16.8386 50.5237 17.2222 50.1402 17.2222 49.5587V43.3546H23.9249V48.1979C23.9249 48.7794 24.3079 49.169 24.8827 49.169H26.4147C28.1378 49.169 29.6704 50.3319 29.8616 52.0762L30.0534 54.0123C30.0534 54.402 30.2446 54.5938 30.6282 54.7917C30.8194 54.9835 31.2024 54.9835 31.3936 54.7917L33.3092 54.0123C34.0751 53.6288 34.6493 53.6288 35.4159 53.6288C38.288 53.6288 40.3948 55.7567 40.3948 58.4722C40.3948 59.0536 40.7778 59.4433 41.3526 59.4433C41.9274 59.4433 42.3098 59.0536 42.3098 58.4722C42.1186 54.2103 39.054 51.1051 35.2241 51.1051ZM38.0969 27.6556V43.7443L31.0106 38.5113C33.1173 34.2433 34.0751 29.5917 33.6915 24.7484L38.0969 27.6556ZM3.62436 43.7443V27.6556L7.8373 24.7484C7.45492 29.5917 8.41209 34.2433 10.7107 38.5113L3.62436 43.7443ZM9.94409 23.3938C10.1359 23.1958 10.1359 22.8124 10.1359 22.4227C11.2855 15.835 14.9236 9.04945 21.0521 2.84533C33.1174 15.2536 35.6071 30.1732 27.3724 41.2206H14.7324C10.5189 35.7959 8.98692 29.7896 9.94409 23.3938Z" />
      <path fill-rule="evenodd" clip-rule="evenodd"
        d="M20.7824 21.6495C22.9937 21.6495 25.0052 19.9794 25.0052 17.9381C25.0052 15.8969 23.1954 14.2268 20.7824 14.2268C18.5698 14.2268 16.5589 15.8969 16.5589 17.9381C16.5589 19.9794 18.3687 21.6495 20.7824 21.6495ZM20.7824 16.2681C21.9889 16.2681 22.9937 17.0103 22.9937 18.1237C22.9937 19.0516 21.9889 19.9794 20.7824 19.9794C19.5758 19.9794 18.5698 19.2371 18.5698 18.1237C18.5698 17.0103 19.5758 16.2681 20.7824 16.2681Z" />
    </symbol>

  </defs>
</svg>