<svg width="32" height="32" viewBox="0 0 32 32" fill="none" xmlns="http://www.w3.org/2000/svg">
    <g clip-path="url(#clip0_2_22)">
        <path
            d="M18.537 19.634L11.3283 12.4306L10.9602 12.0264C10.0344 10.917 9.5686 9.54979 9.5686 8.18569C9.5686 6.65139 10.1564 5.11191 11.3278 3.94134C12.4997 2.77025 14.0403 2.18237 15.5758 2.18341C17.1117 2.18237 18.6523 2.77025 19.8237 3.94134C20.6503 4.76686 21.1872 5.77606 21.4313 6.83767"
            stroke="#7EE5F6" stroke-linecap="round" stroke-linejoin="round" />
        <path
            d="M10.8267 22.3503C10.7166 22.7623 10.6616 23.1862 10.6616 23.6101C10.6626 24.8735 11.1387 26.1313 12.1014 27.0938C13.0625 28.0542 14.317 28.5321 15.5767 28.5321C16.8364 28.5321 18.0914 28.0537 19.0526 27.0938C20.0132 26.1334 20.4914 24.8798 20.4924 23.6205C20.4914 22.5329 20.1336 21.4495 19.4176 20.5555"
            stroke="#7EE5F6" stroke-linecap="round" stroke-linejoin="round" />
        <path
            d="M9.78332 29.4095C8.18245 27.8098 7.38409 25.7068 7.38461 23.6106C7.38461 21.9295 7.90422 20.2463 8.93772 18.8225"
            stroke="#7EE5F6" stroke-linecap="round" stroke-linejoin="round" />
        <path
            d="M18.3075 8.18464C18.3075 7.48521 18.0422 6.79044 17.5079 6.25601C16.9736 5.72209 16.2778 5.45799 15.5773 5.45695C14.8763 5.45799 14.1811 5.72209 13.6462 6.25601C13.1119 6.78992 12.8476 7.48572 12.8466 8.18568C12.8466 8.71233 12.9972 9.23535 13.2983 9.68988L13.6462 10.1148L21.3695 17.8325L21.7418 18.2325C23.0913 19.7715 23.77 21.6975 23.7694 23.6205C23.7694 25.7141 22.9688 27.8119 21.37 29.409C19.7718 31.0061 17.6719 31.8077 15.5768 31.8067C13.8617 31.8072 12.1435 31.2702 10.6995 30.1987"
            stroke="#7EE5F6" stroke-linecap="round" stroke-linejoin="round" />
        <path
            d="M16.5337 0.0555573C18.3002 0.262067 20.0153 1.044 21.3695 2.39773C22.9651 3.99274 23.7694 6.08689 23.7684 8.17793C23.7689 9.77501 23.3047 11.3757 22.3752 12.7549"
            stroke="#7EE5F6" stroke-linecap="round" stroke-linejoin="round" />
        <path
            d="M12.9879 17.1761L9.78414 13.9747L9.41236 13.5736C8.06337 12.0346 7.38471 10.1086 7.38523 8.1862C7.38523 6.09256 8.18643 3.99477 9.78414 2.39769C11.3824 0.800615 13.4822 -0.000518617 15.5768 2.51878e-07"
            stroke="#7EE5F6" stroke-linecap="round" stroke-linejoin="round" />
        <path
            d="M13.1726 22.3259C12.9551 22.7285 12.8471 23.1737 12.8465 23.621C12.8476 24.3214 13.1119 25.0162 13.6462 25.5506C14.1805 26.0846 14.8763 26.3492 15.5773 26.3497C16.2777 26.3497 16.9735 26.0846 17.5078 25.5506C18.0421 25.0167 18.3069 24.3209 18.308 23.621C18.3069 23.0943 18.1574 22.5708 17.8552 22.1168L17.5068 21.6918L14.9931 19.18L14.3529 18.5402L13.7422 17.93"
            stroke="#7EE5F6" stroke-linecap="round" stroke-linejoin="round" />
        <path
            d="M19.0516 11.6585C20.0132 10.6975 20.4909 9.44239 20.4914 8.18206C20.4904 6.92484 20.0122 5.67229 19.0516 4.7129C18.0905 3.75248 16.836 3.27512 15.5758 3.2746C14.3161 3.27563 13.0616 3.75299 12.1004 4.7129C11.1393 5.67281 10.6611 6.92692 10.6611 8.18569C10.6611 9.27324 11.0189 10.3566 11.7354 11.2507L12.0999 11.6595L19.8237 19.3767L20.1918 19.7809C21.1182 20.8897 21.5839 22.2569 21.5834 23.621C21.5834 25.1558 20.9962 26.6953 19.8237 27.8659C18.6523 29.037 17.1117 29.6248 15.5758 29.6238C14.0398 29.6248 12.4997 29.037 11.3278 27.8659C10.1522 26.6917 9.56808 25.147 9.5686 23.6101C9.5686 22.0779 10.16 20.5436 11.3278 19.3761"
            stroke="#A9278A" stroke-width="1.5" stroke-miterlimit="10" stroke-linecap="round" />
        <path d="M10.0686 19.1432C9.00809 20.4414 8.47706 22.0245 8.47706 23.6112" stroke="#A9278A" stroke-width="1.5"
            stroke-miterlimit="10" stroke-linecap="round" />
        <path
            d="M14.4404 27.2692C13.8668 27.0912 13.3264 26.7752 12.8733 26.3217C12.1279 25.5776 11.7531 24.597 11.7536 23.6205C11.7536 22.645 12.1273 21.6638 12.8733 20.9192"
            stroke="#A9278A" stroke-width="1.5" stroke-miterlimit="10" stroke-linecap="round" />
        <path
            d="M20.9136 12.8643C22.0912 11.5261 22.6764 9.85433 22.6764 8.17735C22.6764 6.36338 21.9832 4.55357 20.5968 3.16871C19.2089 1.78281 17.3952 1.09167 15.5763 1.09064C13.7573 1.09167 11.9436 1.78281 10.5562 3.16871"
            stroke="#A9278A" stroke-width="1.5" stroke-miterlimit="10" stroke-linecap="round" />
        <path
            d="M19.0515 11.6585C19.1585 11.5511 19.2597 11.4406 19.3553 11.3264C20.1139 10.4173 20.4909 9.30178 20.4919 8.18206C20.4909 6.92484 20.0126 5.67229 19.052 4.7129C18.0909 3.75248 16.8364 3.27512 15.5762 3.2746C14.3165 3.27563 13.062 3.75299 12.1009 4.7129C11.1398 5.67281 10.6616 6.92692 10.6616 8.18569C10.6616 9.27324 11.0193 10.3566 11.7359 11.2507L12.1004 11.6595L19.8242 19.3767"
            stroke="#A9278A" stroke-width="1.5" stroke-miterlimit="10" stroke-linecap="round" />
    </g>
</svg>