<svg width="833" height="32" viewBox="0 0 833 32" fill="none" xmlns="http://www.w3.org/2000/svg">
    <g clip-path="url(#clip0_2363_7749)">
        <g opacity="0.6">
            <g opacity="0.5">
                <path
                    d="M30.5765 -5.43847C27.8343 -3.91788 25.3328 -2.02534 23.1376 0.16622C17.1099 6.19391 13.354 14.5627 13.354 23.7811L13.354 39.9315"
                    stroke="#18BAA8" stroke-width="1.97277" stroke-miterlimit="10" stroke-linecap="round" />
                <path d="M66.7937 39.9322L66.7937 23.7817C66.7937 12.7146 57.8233 3.74414 46.7561 3.74414"
                    stroke="#A9278A" stroke-width="1.97277" stroke-miterlimit="10" stroke-linecap="round" />
                <path d="M93.5122 -38.085L93.5122 3.95937" stroke="#FF9700" stroke-width="1.97277"
                    stroke-miterlimit="10" stroke-linecap="round" />
                <path
                    d="M240.461 11.9668L240.461 -14.7512C240.461 -25.8147 235.962 -35.8536 228.723 -43.0919C221.485 -50.3303 211.446 -54.8301 200.383 -54.8301"
                    stroke="#A9278A" stroke-width="1.97277" stroke-miterlimit="10" stroke-linecap="round" />
                <path
                    d="M200.387 21.5859L200.387 69.6798C200.387 84.4373 188.426 96.3979 173.669 96.3979C158.911 96.3979 146.951 84.4373 146.951 69.6798L146.951 40.825"
                    stroke="#A9278A" stroke-width="1.97277" stroke-miterlimit="10" stroke-linecap="round" />
                <path
                    d="M260.499 125.074C242.055 125.074 227.1 110.12 227.1 91.6755L227.1 -14.7517C227.1 -29.5091 215.14 -41.4697 200.382 -41.4697C185.625 -41.4697 173.664 -29.5092 173.664 -14.7517L173.664 61.661"
                    stroke="#7EE5F6" stroke-width="1.97277" stroke-miterlimit="10" stroke-linecap="round" />
                <path opacity="0.25" d="M293.897 -97.1885L293.897 20.7836" stroke="#7DE5F6" stroke-width="1.97277"
                    stroke-miterlimit="10" stroke-linecap="round" />
                <path opacity="0.25" d="M392.724 39.8444L392.724 5.86621" stroke="#7DE5F6" stroke-width="1.97277"
                    stroke-miterlimit="10" stroke-linecap="round" />
                <path
                    d="M145.328 98.0173C138.09 90.779 133.59 80.7401 133.59 69.6766L133.59 -19.8745C133.59 -27.2514 127.61 -33.2353 120.229 -33.2353C112.852 -33.2354 106.868 -27.2551 106.868 -19.8745L106.868 19.5917"
                    stroke="#7EE5F6" stroke-width="1.97277" stroke-miterlimit="10" stroke-linecap="round" />
                <path d="M240.463 56.4981L240.463 27.4609" stroke="#18BAA8" stroke-width="1.97277"
                    stroke-miterlimit="10" stroke-linecap="round" />
                <g style="mix-blend-mode:multiply" opacity="0.25">
                    <path d="M392.664 62.9199C400.022 62.9199 405.992 58.7975 405.992 53.7098L405.992 -24.7373"
                        stroke="#082A6A" stroke-width="1.97277" stroke-miterlimit="10" stroke-linecap="round" />
                    <path d="M93.5083 14.4609L93.5083 53.114" stroke="#082A6A" stroke-width="1.97277"
                        stroke-miterlimit="10" stroke-linecap="round" />
                    <path
                        d="M366.002 -44.8096L366.002 -2.55009C366.002 6.6683 362.25 15.0371 356.218 21.0647C350.191 27.0924 341.822 30.8483 332.604 30.8483C323.385 30.8483 315.016 27.0961 308.989 21.0647"
                        stroke="#082A6A" stroke-width="1.97277" stroke-miterlimit="10" stroke-linecap="round" />
                </g>
                <path d="M293.897 20.7842L293.897 91.6761C293.897 110.12 278.943 125.075 260.499 125.075"
                    stroke="#A9278A" stroke-width="1.97277" stroke-miterlimit="10" stroke-linecap="round" />
                <g opacity="0.75">
                </g>
                <g style="mix-blend-mode:multiply" opacity="0.5">
                    <path
                        d="M187.026 47.5016L187.026 69.676C187.026 73.3699 185.546 76.6919 183.113 79.1242C180.681 81.5564 177.359 83.0369 173.665 83.0369C169.971 83.0369 166.649 81.5564 164.217 79.1242C161.785 76.6919 160.304 73.3699 160.304 69.676L160.304 -7.79785"
                        stroke="#082A6A" stroke-width="1.97277" stroke-miterlimit="10" stroke-linecap="round" />
                    <path
                        d="M200.387 -28.1094C196.694 -28.1094 193.372 -26.6289 190.939 -24.1967C188.507 -21.7644 187.027 -18.4425 187.027 -14.7485L187.027 11.9695"
                        stroke="#082A6A" stroke-width="1.97277" stroke-miterlimit="10" stroke-linecap="round" />
                    <path d="M213.745 3.27642L213.745 -14.752" stroke="#082A6A" stroke-width="1.97277"
                        stroke-miterlimit="10" stroke-linecap="round" />
                    <path
                        d="M278.801 -75.2511L278.801 76.36C278.801 80.0503 275.811 83.0404 272.121 83.0404C268.431 83.0404 265.441 80.0503 265.441 76.36L265.441 -181.824"
                        stroke="#082A6A" stroke-width="1.97277" stroke-miterlimit="10" stroke-linecap="round" />
                    <path
                        d="M312.567 -157.933L312.567 -2.55092C312.567 8.51625 321.538 17.4867 332.605 17.4867C343.672 17.4867 352.642 8.51626 352.642 -2.55092"
                        stroke="#082A6A" stroke-width="1.97277" stroke-miterlimit="10" stroke-linecap="round" />
                    <path d="M379.365 -9.43555L379.365 49.3718" stroke="#082A6A" stroke-width="1.97277"
                        stroke-miterlimit="10" stroke-linecap="round" />
                    <path d="M106.872 19.5908L106.872 191.298" stroke="#082A6A" stroke-width="1.97277"
                        stroke-miterlimit="10" stroke-linecap="round" />
                </g>
                <path
                    d="M293.89 23.1572C295.245 23.1572 296.344 22.0585 296.344 20.7031C296.344 19.3478 295.245 18.249 293.89 18.249C292.535 18.249 291.436 19.3478 291.436 20.7031C291.436 22.0585 292.535 23.1572 293.89 23.1572Z"
                    fill="#B70E8D" />
            </g>
            <g opacity="0.5">
                <path
                    d="M802.424 43.3135C805.166 41.7929 807.667 39.9003 809.862 37.7088C815.89 31.6811 819.646 23.3123 819.646 14.0939L819.646 -2.05647"
                    stroke="#18BAA8" stroke-width="1.97277" stroke-miterlimit="10" stroke-linecap="round" />
                <path d="M766.206 -2.05717L766.206 14.0933C766.206 25.1604 775.177 34.1309 786.244 34.1309"
                    stroke="#A9278A" stroke-width="1.97277" stroke-miterlimit="10" stroke-linecap="round" />
                <path
                    d="M592.538 25.9082L592.538 52.6262C592.538 63.6897 597.038 73.7286 604.276 80.9669C611.515 88.2053 621.554 92.7051 632.617 92.7051"
                    stroke="#A9278A" stroke-width="1.97277" stroke-miterlimit="10" stroke-linecap="round" />
                <path
                    d="M632.614 16.2891L632.614 -31.8048C632.614 -46.5623 644.574 -58.5229 659.332 -58.5229C674.089 -58.5229 686.05 -46.5623 686.05 -31.8048L686.05 -2.94995"
                    stroke="#A9278A" stroke-width="1.97277" stroke-miterlimit="10" stroke-linecap="round" />
                <path
                    d="M572.501 -87.199C590.945 -87.199 605.899 -72.2446 605.899 -53.8005L605.899 52.6267C605.899 67.3841 617.86 79.3447 632.617 79.3447C647.375 79.3447 659.335 67.3842 659.335 52.6267L659.335 -23.786"
                    stroke="#7EE5F6" stroke-width="1.97277" stroke-miterlimit="10" stroke-linecap="round" />
                <path opacity="0.25" d="M539.103 135.063L539.103 17.0914" stroke="#7DE5F6" stroke-width="1.97277"
                    stroke-miterlimit="10" stroke-linecap="round" />
                <path opacity="0.25" d="M440.276 -1.96944L440.276 32.0088" stroke="#7DE5F6" stroke-width="1.97277"
                    stroke-miterlimit="10" stroke-linecap="round" />
                <path
                    d="M687.672 -60.1423C694.91 -52.904 699.41 -42.8651 699.41 -31.8016L699.41 57.7495C699.41 65.1264 705.39 71.1103 712.771 71.1104C720.148 71.1104 726.132 65.1301 726.132 57.7495L726.132 18.2833"
                    stroke="#7EE5F6" stroke-width="1.97277" stroke-miterlimit="10" stroke-linecap="round" />
                <path d="M592.537 -18.6231L592.537 10.4141" stroke="#18BAA8" stroke-width="1.97277"
                    stroke-miterlimit="10" stroke-linecap="round" />
                <g style="mix-blend-mode:multiply" opacity="0.25">
                    <path d="M440.279 -24.8586C432.902 -24.8586 426.918 -18.8783 426.918 -11.4977L426.918 102.303"
                        stroke="#082A6A" stroke-width="1.97277" stroke-miterlimit="10" stroke-linecap="round" />
                    <path d="M739.492 23.4141L739.492 -15.239" stroke="#082A6A" stroke-width="1.97277"
                        stroke-miterlimit="10" stroke-linecap="round" />
                    <path
                        d="M466.998 82.6846L466.998 40.4251C466.998 31.2067 470.75 22.8379 476.782 16.8103C482.809 10.7826 491.178 7.02666 500.397 7.02666C509.615 7.02666 517.984 10.7789 524.011 16.8103"
                        stroke="#082A6A" stroke-width="1.97277" stroke-miterlimit="10" stroke-linecap="round" />
                </g>
                <path d="M539.103 17.0908L539.103 -53.8011C539.103 -72.2452 554.057 -87.1995 572.501 -87.1995"
                    stroke="#A9278A" stroke-width="1.97277" stroke-miterlimit="10" stroke-linecap="round" />
                <g opacity="0.75">
                </g>
                <g style="mix-blend-mode:multiply" opacity="0.5">
                    <path
                        d="M645.974 -9.62656L645.974 -31.801C645.974 -35.4949 647.455 -38.8169 649.887 -41.2492C652.319 -43.6814 655.641 -45.1619 659.335 -45.1619C663.029 -45.1619 666.351 -43.6814 668.783 -41.2492C671.215 -38.8169 672.696 -35.4949 672.696 -31.801L672.696 45.6729"
                        stroke="#082A6A" stroke-width="1.97277" stroke-miterlimit="10" stroke-linecap="round" />
                    <path
                        d="M632.613 65.9844C636.307 65.9844 639.629 64.5039 642.061 62.0717C644.493 59.6394 645.974 56.3175 645.974 52.6235L645.974 25.9055"
                        stroke="#082A6A" stroke-width="1.97277" stroke-miterlimit="10" stroke-linecap="round" />
                    <path
                        d="M554.199 113.126L554.199 -38.485C554.199 -42.1753 557.189 -45.1654 560.879 -45.1654C564.569 -45.1654 567.56 -42.1753 567.56 -38.485L567.56 219.699"
                        stroke="#082A6A" stroke-width="1.97277" stroke-miterlimit="10" stroke-linecap="round" />
                    <path
                        d="M520.433 195.808L520.433 40.4259C520.433 29.3587 511.463 20.3883 500.396 20.3883C489.328 20.3883 480.358 29.3587 480.358 40.4259"
                        stroke="#082A6A" stroke-width="1.97277" stroke-miterlimit="10" stroke-linecap="round" />
                    <path d="M453.635 47.3105L453.635 -11.4968" stroke="#082A6A" stroke-width="1.97277"
                        stroke-miterlimit="10" stroke-linecap="round" />
                    <path d="M726.128 18.2842L726.128 -153.423" stroke="#082A6A" stroke-width="1.97277"
                        stroke-miterlimit="10" stroke-linecap="round" />
                </g>
                <path
                    d="M539.11 14.7178C537.755 14.7178 536.656 15.8165 536.656 17.1719C536.656 18.5272 537.755 19.626 539.11 19.626C540.466 19.626 541.564 18.5272 541.564 17.1719C541.564 15.8165 540.466 14.7178 539.11 14.7178Z"
                    fill="#B70E8D" />
                <path
                    d="M766.259 -4.64942C764.903 -4.64942 763.805 -3.55069 763.805 -2.19532C763.805 -0.839956 764.903 0.258789 766.259 0.258789C767.614 0.258789 768.713 -0.839955 768.713 -2.19532C768.713 -3.55068 767.614 -4.64942 766.259 -4.64942Z"
                    fill="#7EE5F6" />
            </g>
        </g>
        <rect width="834" height="12" transform="translate(-1 20)" fill="url(#paint0_linear_2363_7749)" />
    </g>
    <defs>
        <linearGradient id="paint0_linear_2363_7749" x1="417.953" y1="-8.21066" x2="417.855" y2="12.0042"
            gradientUnits="userSpaceOnUse">
            <stop offset="0.4" stop-color="white" stop-opacity="0" />
            <stop offset="0.76" stop-color="white" />
        </linearGradient>
        <clipPath id="clip0_2363_7749">
            <rect width="833" height="32" fill="white" />
        </clipPath>
    </defs>
</svg>