<svg width="169" height="72" viewBox="0 0 169 72" fill="none" xmlns="http://www.w3.org/2000/svg">
<g clip-path="url(#clip0_0_3)">
<g opacity="0.5">
<path d="M14.208 23.342C9.04075 23.342 4.34241 21.2326 0.967782 17.858C-2.40685 14.4834 -4.51618 9.78504 -4.51618 4.61778V-7.73075C-4.51618 -11.1776 -7.3112 -13.9727 -10.7581 -13.9727C-14.205 -13.9727 -17 -11.1776 -17 -7.73075V16.1007" stroke="#7EE5F6" stroke-width="0.815889" stroke-miterlimit="10" stroke-linecap="round"/>
<path d="M88.291 -53.5508V12.8026" stroke="#7EE5F6" stroke-width="0.815889" stroke-miterlimit="10" stroke-linecap="round"/>
<path d="M57.8926 -27.6523V9.38094" stroke="#18BAA8" stroke-width="0.815889" stroke-miterlimit="10" stroke-linecap="round"/>
<path d="M51.656 58.043V80.5123C51.656 87.4061 46.0675 92.9946 39.1737 92.9946C32.2799 92.9946 26.6914 87.4061 26.6914 80.5123V67.0307" stroke="#18BAA8" stroke-width="0.815889" stroke-miterlimit="10" stroke-linecap="round"/>
<path opacity="0.25" d="M95.3438 2.55078V57.6671" stroke="#7DE5F6" stroke-width="0.815889" stroke-miterlimit="10" stroke-linecap="round"/>
<path opacity="0.25" d="M76.623 -39.6523V18.6004" stroke="#7DE5F6" stroke-width="0.815889" stroke-miterlimit="10" stroke-linecap="round"/>
<path d="M95.3477 -43.1016V2.55201" stroke="#FF9700" stroke-width="0.815889" stroke-miterlimit="10" stroke-linecap="round"/>
<path opacity="0.25" d="M116.551 29.1475V-14.1815C116.551 -17.6269 117.954 -20.7555 120.207 -23.0078" stroke="#7DE5F6" stroke-width="0.815889" stroke-miterlimit="10" stroke-linecap="round"/>
<path opacity="0.25" d="M122.791 45.7323V-14.1839C122.791 -17.6308 125.586 -20.4258 129.033 -20.4258C132.48 -20.4258 135.275 -17.6308 135.275 -14.1839V42.7051" stroke="#7DE5F6" stroke-width="0.815889" stroke-miterlimit="10" stroke-linecap="round"/>
<path opacity="0.25" d="M129.035 -26.6602C132.481 -26.6602 135.609 -25.2565 137.861 -23.0042C140.114 -20.7519 141.517 -17.6232 141.517 -14.1779V33.3329" stroke="#7DE5F6" stroke-width="0.815889" stroke-miterlimit="10" stroke-linecap="round"/>
<path opacity="0.25" d="M141.516 66.5729V50.6991" stroke="#7DE5F6" stroke-width="0.815889" stroke-miterlimit="10" stroke-linecap="round"/>
<path d="M25.9385 93.7511C22.5577 90.3703 20.4545 85.6796 20.4545 80.5108V38.6716C20.4545 35.2247 17.6595 32.4297 14.2126 32.4297C10.7657 32.4297 7.9707 35.2247 7.9707 38.6716V57.1098" stroke="#7EE5F6" stroke-width="0.815889" stroke-miterlimit="10" stroke-linecap="round"/>
<path opacity="0.25" d="M126.552 75.5209V103.662C126.552 107.109 123.757 109.904 120.31 109.904C116.863 109.904 114.068 107.109 114.068 103.662V73.2732C114.068 69.8263 111.273 67.0312 107.826 67.0312C104.379 67.0312 101.584 69.8263 101.584 73.2732V90.7905" stroke="#7DE5F6" stroke-width="0.815889" stroke-miterlimit="10" stroke-linecap="round"/>
<path d="M70 74L70 52" stroke="#18BAA8" stroke-width="0.815889" stroke-miterlimit="10" stroke-linecap="round"/>
<path opacity="0.25" d="M110.301 -34.1016V11.0185" stroke="#7DE5F6" stroke-width="0.815889" stroke-miterlimit="10" stroke-linecap="round"/>
<path d="M20.4512 -39.6523V4.62062" stroke="#001D3F" stroke-width="0.815889" stroke-miterlimit="10" stroke-linecap="round"/>
<path d="M141.516 77.2698C144.963 77.2698 147.758 74.4747 147.758 71.0278V17.8594" stroke="#001D3F" stroke-width="0.815889" stroke-miterlimit="10" stroke-linecap="round"/>
<path d="M129.032 27.0273V46.7708C129.032 51.0771 127.28 54.9868 124.461 57.8033C121.645 60.6199 117.735 62.3741 113.429 62.3741C109.123 62.3741 105.213 60.6214 102.396 57.8033" stroke="#001D3F" stroke-width="0.815889" stroke-miterlimit="10" stroke-linecap="round"/>
<path d="M26.6911 -37.5586V4.62657C26.6911 8.07191 25.2875 11.2006 23.0351 13.4529C20.7828 15.7052 17.6542 17.1088 14.2088 17.1088C10.7635 17.1088 7.63485 15.7052 5.38254 13.4529C3.13022 11.2006 1.72656 8.07191 1.72656 4.62657V-2.61313" stroke="#A9278A" stroke-width="0.815889" stroke-miterlimit="10" stroke-linecap="round"/>
<path d="M70.3809 -28.6523V8.75606C70.3809 13.9264 66.1899 18.1174 61.0195 18.1174C55.8492 18.1174 51.6582 13.9264 51.6582 8.75606V-28.6523" stroke="#A9278A" stroke-width="0.815889" stroke-miterlimit="10" stroke-linecap="round"/>
<path d="M95.3454 57.6719V90.7924C95.3454 99.4096 88.3594 106.396 79.7422 106.396" stroke="#FF9700" stroke-width="0.815889" stroke-miterlimit="10" stroke-linecap="round"/>
<path d="M39.1731 7.74549V-11.8673C39.1731 -13.5908 37.7756 -14.9883 36.0522 -14.9883C34.3287 -14.9883 32.9312 -13.5908 32.9312 -11.8673V4.62453C32.9312 9.79179 30.8219 14.4901 27.4473 17.8648" stroke="#7EE5F6" stroke-width="0.815889" stroke-miterlimit="10" stroke-linecap="round"/>
<path d="M147.752 9.3388V-43.8281" stroke="#7EE5F6" stroke-width="0.815889" stroke-miterlimit="10" stroke-linecap="round"/>
<path d="M110.309 11.2969V32.4548" stroke="#7EE5F6" stroke-width="0.815889" stroke-miterlimit="10" stroke-linecap="round"/>
<path d="M45.4155 85.1566V95.5172C45.4155 97.2422 44.7236 98.7935 43.5875 99.9311C42.4513 101.067 40.9001 101.759 39.1736 101.759C37.4486 101.759 35.8973 101.067 34.7596 99.9311C33.6235 98.795 32.9316 97.2437 32.9316 95.5172V59.3203" stroke="#001D3F" stroke-width="0.815889" stroke-miterlimit="10" stroke-linecap="round"/>
<path d="M51.6539 34.832C49.9289 34.832 48.3777 35.5239 47.24 36.66C46.1038 37.7962 45.412 39.3474 45.412 41.0739V53.5562" stroke="#001D3F" stroke-width="0.815889" stroke-miterlimit="10" stroke-linecap="round"/>
<path d="M88.2927 12.8064V83.6367C88.2927 85.3601 86.8952 86.7576 85.1717 86.7576C83.4483 86.7576 82.0508 85.3601 82.0508 83.6367V-36.9844" stroke="#001D3F" stroke-width="0.815889" stroke-miterlimit="10" stroke-linecap="round"/>
<path d="M104.064 -25.8242V46.7695C104.064 51.9398 108.255 56.1308 113.426 56.1308C118.596 56.1308 122.787 51.9398 122.787 46.7695" stroke="#001D3F" stroke-width="0.815889" stroke-miterlimit="10" stroke-linecap="round"/>
<path d="M135.271 43.5508V71.0259" stroke="#001D3F" stroke-width="0.815889" stroke-miterlimit="10" stroke-linecap="round"/>
<path d="M95.3485 3.697C95.9811 3.697 96.4939 3.1842 96.4939 2.55162C96.4939 1.91905 95.9811 1.40625 95.3485 1.40625C94.7159 1.40625 94.2031 1.91905 94.2031 2.55162C94.2031 3.1842 94.7159 3.697 95.3485 3.697Z" fill="#7EE5F6"/>
<path d="M57.9071 11.5329C58.5397 11.5329 59.0525 11.0201 59.0525 10.3876C59.0525 9.75499 58.5397 9.24219 57.9071 9.24219C57.2745 9.24219 56.7617 9.75499 56.7617 10.3876C56.7617 11.0201 57.2745 11.5329 57.9071 11.5329Z" fill="#7EE5F6"/>
<path d="M14.2196 24.4861C14.8522 24.4861 15.365 23.9733 15.365 23.3407C15.365 22.7081 14.8522 22.1953 14.2196 22.1953C13.587 22.1953 13.0742 22.7081 13.0742 23.3407C13.0742 23.9733 13.587 24.4861 14.2196 24.4861Z" fill="#B70E8D"/>
<path d="M95.3387 58.7751C95.9713 58.7751 96.4841 58.2623 96.4841 57.6298C96.4841 56.9972 95.9713 56.4844 95.3387 56.4844C94.7062 56.4844 94.1934 56.9972 94.1934 57.6298C94.1934 58.2623 94.7062 58.7751 95.3387 58.7751Z" fill="#B70E8D"/>
<path d="M110.315 12.3454C110.948 12.3454 111.461 11.8326 111.461 11.2001C111.461 10.5675 110.948 10.0547 110.315 10.0547C109.683 10.0547 109.17 10.5675 109.17 11.2001C109.17 11.8326 109.683 12.3454 110.315 12.3454Z" fill="#7EE5F6"/>
<path d="M122.8 47.2673C123.432 47.2673 123.945 46.7545 123.945 46.1219C123.945 45.4894 123.432 44.9766 122.8 44.9766C122.167 44.9766 121.654 45.4894 121.654 46.1219C121.654 46.7545 122.167 47.2673 122.8 47.2673Z" fill="#7EE5F6"/>
<path d="M135.266 44.2126C135.899 44.2126 136.412 43.6998 136.412 43.0673C136.412 42.4347 135.899 41.9219 135.266 41.9219C134.634 41.9219 134.121 42.4347 134.121 43.0673C134.121 43.6998 134.634 44.2126 135.266 44.2126Z" fill="#7EE5F6"/>
<path d="M88.2958 13.9236C88.9283 13.9236 89.4411 13.4108 89.4411 12.7782C89.4411 12.1456 88.9283 11.6328 88.2958 11.6328C87.6632 11.6328 87.1504 12.1456 87.1504 12.7782C87.1504 13.4108 87.6632 13.9236 88.2958 13.9236Z" fill="#7EE5F6"/>
</g>
<path d="M50.6967 30.3323C51.8687 29.1611 52.4509 27.6314 52.4515 26.0954C52.4502 24.5632 51.8674 23.0366 50.6967 21.8674C49.5253 20.6968 47.9964 20.1151 46.4605 20.1144C44.9252 20.1157 43.3963 20.6975 42.225 21.8674C41.0536 23.0373 40.4708 24.5657 40.4708 26.0998C40.4708 27.4253 40.9068 28.7457 41.7801 29.8352L42.2243 30.3336L51.6377 39.7388L52.0864 40.2314C53.2153 41.5828 53.783 43.2491 53.7823 44.9116C53.7823 46.7822 53.0666 48.6584 51.6377 50.085C50.21 51.5123 48.3324 52.2288 46.4605 52.2275C44.5886 52.2288 42.7116 51.5123 41.2833 50.085C39.8506 48.654 39.1386 46.7714 39.1393 44.8983C39.1393 43.0309 39.8601 41.161 41.2833 39.7382" stroke="#A9278A" stroke-width="0.442847" stroke-miterlimit="10" stroke-linecap="round"/>
<path d="M53.7834 26.0954C53.7834 27.2267 53.5221 28.3606 52.9995 29.3964" stroke="#A9278A" stroke-width="0.442847" stroke-miterlimit="10" stroke-linecap="round"/>
<path d="M50.0695 40.0525L41.2839 31.2732L40.8353 30.7806C39.7069 29.4286 39.1393 27.7623 39.1393 26.0998C39.1393 24.2299 39.8556 22.3536 41.2833 20.927C42.7116 19.4997 44.5892 18.7833 46.4605 18.7845C48.3324 18.7833 50.21 19.4997 51.6377 20.927C52.6451 21.9331 53.2995 23.1631 53.5969 24.4569" stroke="#7EE5F6" stroke-width="0.442847" stroke-linecap="round" stroke-linejoin="round"/>
<path d="M40.6726 43.3629C40.5384 43.865 40.4713 44.3817 40.4713 44.8983C40.4726 46.4381 41.0529 47.971 42.2262 49.1441C43.3975 50.3146 44.9264 50.897 46.4617 50.897C47.9969 50.897 49.5265 50.314 50.6978 49.1441C51.8686 47.9735 52.4514 46.4457 52.4527 44.911C52.4514 43.5855 52.0154 42.2651 51.1427 41.1756" stroke="#7EE5F6" stroke-width="0.442847" stroke-linecap="round" stroke-linejoin="round"/>
<path d="M39.401 51.9663C37.4499 50.0167 36.4769 47.4537 36.4775 44.8989C36.4775 42.85 37.1108 40.7986 38.3704 39.0634" stroke="#7EE5F6" stroke-width="0.442847" stroke-linecap="round" stroke-linejoin="round"/>
<path d="M49.7898 26.0985C49.7898 25.2461 49.4664 24.3994 48.8152 23.748C48.1641 23.0973 47.3161 22.7754 46.4624 22.7742C45.6081 22.7754 44.7607 23.0973 44.1089 23.748C43.4577 24.3987 43.1356 25.2467 43.1343 26.0998C43.1343 26.7417 43.3179 27.3791 43.6849 27.933L44.1089 28.451L53.5216 37.8569L53.9753 38.3444C55.6201 40.22 56.4472 42.5674 56.4465 44.911C56.4465 47.4626 55.4707 50.0193 53.5222 51.9657C51.5744 53.9121 49.0152 54.8891 46.4618 54.8879C44.3715 54.8885 42.2775 54.234 40.5176 52.9282" stroke="#7EE5F6" stroke-width="0.442847" stroke-linecap="round" stroke-linejoin="round"/>
<path d="M44.1595 30.3835L43.1673 29.392L42.7293 28.8873C42.1123 28.064 41.8022 27.08 41.8022 26.1005C41.8022 24.911 42.2579 23.7152 43.1673 22.8083C44.0754 21.9002 45.2721 21.4437 46.4618 21.4449C47.6515 21.4437 48.8482 21.9002 49.7563 22.8083C50.6644 23.7152 51.1219 24.9097 51.1213 26.0992C51.1219 26.9915 50.865 27.8869 50.353 28.6622" stroke="#7EE5F6" stroke-width="0.442847" stroke-linecap="round" stroke-linejoin="round"/>
<path d="M38.014 46.7815C38.357 48.3372 39.1322 49.8144 40.3435 51.0254C42.0344 52.7144 44.2449 53.5568 46.4617 53.558C48.6785 53.5568 50.889 52.7144 52.5805 51.0254C54.2714 49.335 55.1144 47.1262 55.115 44.911C55.115 42.9038 54.4195 40.903 53.0317 39.2879L52.5799 38.7978L45.3068 31.5294" stroke="#7EE5F6" stroke-width="0.442847" stroke-linecap="round" stroke-linejoin="round"/>
<path d="M39.7486 39.4543C38.4561 41.0364 37.809 42.9658 37.809 44.8996" stroke="#A9278A" stroke-width="0.442847" stroke-miterlimit="10" stroke-linecap="round"/>
<path d="M45.0768 49.3578C44.3777 49.1409 43.7191 48.7558 43.1668 48.2031C42.2584 47.2963 41.8016 46.1011 41.8022 44.911C41.8022 43.7221 42.2577 42.5263 43.1668 41.6188" stroke="#A9278A" stroke-width="0.442847" stroke-miterlimit="10" stroke-linecap="round"/>
<path d="M39.4708 21.0029C38.3621 22.5162 37.8096 24.3064 37.809 26.1004C37.809 28.1076 38.5044 30.1078 39.8916 31.7235L40.3428 32.2136L49.7555 41.6195L50.1934 42.1235C50.8105 42.9468 51.1224 43.9314 51.1212 44.911C51.1224 46.1005 50.6649 47.2963 49.7562 48.2031C48.848 49.1112 47.6526 49.5678 46.4616 49.5671" stroke="#7EE5F6" stroke-width="0.442847" stroke-linecap="round" stroke-linejoin="round"/>
<path d="M52.966 31.8019C54.4012 30.171 55.1144 28.1335 55.1144 26.0897C55.1144 23.8789 54.2696 21.6732 52.5799 19.9854C50.8884 18.2963 48.6779 17.454 46.4611 17.4527C44.2443 17.454 42.0338 18.2963 40.3429 19.9854" stroke="#A9278A" stroke-width="0.442847" stroke-miterlimit="10" stroke-linecap="round"/>
<path d="M47.628 16.1912C49.7809 16.4429 51.8712 17.3959 53.5216 19.0457C55.4663 20.9897 56.4465 23.5419 56.4453 26.0904C56.4459 28.0368 55.8801 29.9877 54.7474 31.6685" stroke="#7EE5F6" stroke-width="0.442847" stroke-linecap="round" stroke-linejoin="round"/>
<path d="M43.3064 37.0569L39.4018 33.1552L38.9487 32.6663C37.3046 30.7907 36.4775 28.4434 36.4782 26.1004C36.4782 23.5488 37.4546 20.9921 39.4018 19.0457C41.3497 17.0993 43.9089 16.1229 46.4617 16.1235" stroke="#7EE5F6" stroke-width="0.442847" stroke-linecap="round" stroke-linejoin="round"/>
<path d="M43.5317 43.3332C43.2665 43.8239 43.1349 44.3665 43.1343 44.9116C43.1355 45.7653 43.4577 46.612 44.1088 47.2634C44.76 47.9141 45.608 48.2366 46.4623 48.2372C47.316 48.2372 48.164 47.9141 48.8152 47.2634C49.4664 46.6126 49.7891 45.7646 49.7904 44.9116C49.7891 44.2697 49.6069 43.6316 49.2386 43.0783L48.8139 42.5604L45.7504 39.4991L44.9701 38.7194L44.2259 37.9757" stroke="#7EE5F6" stroke-width="0.442847" stroke-linecap="round" stroke-linejoin="round"/>
<path d="M50.6966 30.3323C50.8269 30.2014 50.9503 30.0667 51.0668 29.9276C51.9914 28.8197 52.4508 27.4601 52.4521 26.0954C52.4508 24.5632 51.8679 23.0366 50.6972 21.8674C49.5258 20.6968 47.9969 20.1151 46.461 20.1144C44.9258 20.1157 43.3969 20.6975 42.2255 21.8674C41.0542 23.0373 40.4713 24.5657 40.4713 26.0998C40.4713 27.4253 40.9073 28.7457 41.7806 29.8352L42.2249 30.3336L51.6382 39.7388" stroke="#A9278A" stroke-width="0.442847" stroke-miterlimit="10" stroke-linecap="round"/>
<path d="M67.4352 34.7188C67.4352 33.4939 67.6184 32.4659 67.9848 31.6347C68.2582 31.0223 68.63 30.4727 69.1003 29.9861C69.576 29.4994 70.0955 29.1385 70.6587 28.9034C71.4078 28.5862 72.2718 28.4276 73.2506 28.4276C75.0223 28.4276 76.4385 28.9772 77.4994 30.0763C78.5656 31.1754 79.0988 32.7037 79.0988 34.6613C79.0988 36.6025 78.5711 38.1227 77.5158 39.2218C76.4604 40.3154 75.0496 40.8622 73.2834 40.8622C71.4953 40.8622 70.0736 40.3182 69.0182 39.23C67.9629 38.1364 67.4352 36.6326 67.4352 34.7188ZM69.9369 34.6367C69.9369 35.9983 70.2513 37.0318 70.8801 37.7372C71.509 38.4371 72.3073 38.7871 73.2752 38.7871C74.2431 38.7871 75.0359 38.4398 75.6539 37.7454C76.2772 37.0455 76.5889 35.9983 76.5889 34.6039C76.5889 33.226 76.2854 32.1979 75.6785 31.5199C75.077 30.8418 74.2759 30.5028 73.2752 30.5028C72.2745 30.5028 71.468 30.8473 70.8555 31.5363C70.2431 32.2198 69.9369 33.2533 69.9369 34.6367ZM80.9197 31.9464H83.0687V33.226C83.3476 32.7885 83.7249 32.4331 84.2006 32.1597C84.6763 31.8863 85.204 31.7495 85.7836 31.7495C86.7952 31.7495 87.6537 32.146 88.3591 32.9389C89.0645 33.7318 89.4172 34.8363 89.4172 36.2526C89.4172 37.7071 89.0618 38.839 88.3509 39.6483C87.6401 40.4521 86.7788 40.854 85.7672 40.854C85.286 40.854 84.8486 40.7583 84.4549 40.567C84.0666 40.3756 83.6565 40.0475 83.2245 39.5827V43.9709H80.9197V31.9464ZM83.1999 36.1542C83.1999 37.133 83.394 37.8575 83.7823 38.3278C84.1705 38.7925 84.6435 39.0249 85.2013 39.0249C85.7371 39.0249 86.1828 38.8117 86.5382 38.3852C86.8937 37.9532 87.0714 37.2478 87.0714 36.269C87.0714 35.3558 86.8882 34.6778 86.5218 34.2348C86.1555 33.7919 85.7016 33.5704 85.1603 33.5704C84.597 33.5704 84.1295 33.7892 83.7577 34.2266C83.3858 34.6586 83.1999 35.3011 83.1999 36.1542ZM96.2989 37.8848L98.5955 38.2703C98.3003 39.1124 97.8327 39.7549 97.193 40.1979C96.5586 40.6353 95.763 40.854 94.8061 40.854C93.2914 40.854 92.1704 40.3592 91.4432 39.3694C90.869 38.5766 90.5819 37.5759 90.5819 36.3674C90.5819 34.9238 90.9592 33.7946 91.7138 32.9799C92.4685 32.1597 93.4227 31.7495 94.5764 31.7495C95.8724 31.7495 96.8949 32.1788 97.6441 33.0373C98.3932 33.8903 98.7514 35.2 98.7186 36.9662H92.9442C92.9606 37.6497 93.1465 38.1828 93.5019 38.5656C93.8574 38.9429 94.3003 39.1316 94.8307 39.1316C95.1916 39.1316 95.4951 39.0331 95.7412 38.8363C95.9872 38.6394 96.1731 38.3223 96.2989 37.8848ZM96.4301 35.5554C96.4137 34.8883 96.2415 34.3825 95.9134 34.038C95.5853 33.688 95.1861 33.513 94.7159 33.513C94.2128 33.513 93.7972 33.6962 93.4691 34.0626C93.141 34.4289 92.9797 34.9266 92.9852 35.5554H96.4301ZM108.528 40.6572H106.224V36.2116C106.224 35.271 106.174 34.6641 106.076 34.3907C105.978 34.1118 105.816 33.8958 105.592 33.7427C105.373 33.5896 105.108 33.513 104.796 33.513C104.397 33.513 104.039 33.6224 103.722 33.8411C103.405 34.0598 103.186 34.3497 103.066 34.7106C102.951 35.0715 102.894 35.7386 102.894 36.7119V40.6572H100.589V31.9464H102.729V33.226C103.49 32.2417 104.446 31.7495 105.6 31.7495C106.109 31.7495 106.574 31.8425 106.995 32.0284C107.416 32.2089 107.733 32.4413 107.946 32.7256C108.165 33.01 108.315 33.3326 108.397 33.6935C108.485 34.0544 108.528 34.5711 108.528 35.2437V40.6572Z" fill="#7EE5F6"/>
<path d="M58.1616 25.7206H132.139" stroke="#7EE5F6" stroke-width="0.379583" stroke-miterlimit="10"/>
<path d="M59.8711 46.5888L132.14 46.5888" stroke="#7EE5F6" stroke-width="0.379583" stroke-miterlimit="10"/>
<path d="M121.507 31.4746C125.072 31.4746 127.962 28.5868 127.962 25.0244C127.962 21.4621 125.072 18.5742 121.507 18.5742C117.942 18.5742 115.052 21.4621 115.052 25.0244C115.052 28.5868 117.942 31.4746 121.507 31.4746Z" stroke="#7EE5F6" stroke-width="0.316785" stroke-miterlimit="10"/>
<path d="M125.209 25.273C125.206 26.5966 124.506 27.7571 123.457 28.4078C123.3 28.506 123.091 28.4363 123.021 28.2654L122.215 26.3037C122.551 26.0757 122.769 25.6894 122.766 25.2524C122.76 24.5605 122.182 23.9969 121.489 24.0064C120.803 24.0159 120.249 24.5748 120.249 25.2635C120.249 25.7195 120.491 26.1185 120.854 26.3385L120.049 28.2986C119.979 28.468 119.777 28.5377 119.618 28.4443C118.533 27.7999 117.806 26.6156 117.806 25.2635C117.806 23.2037 119.491 21.5365 121.559 21.565C123.578 21.5935 125.214 23.2575 125.208 25.273H125.209Z" stroke="#7EE5F6" stroke-width="0.316785" stroke-miterlimit="10"/>
</g>
<defs>
<clipPath id="clip0_0_3">
<rect width="169" height="72" fill="white"/>
</clipPath>
</defs>
</svg>
